<svg width="144" height="40" viewBox="0 0 144 40" fill="none" xmlns="http://www.w3.org/2000/svg">
<path d="M55.7074 9.05966C55.6364 8.82955 55.5384 8.62358 55.4134 8.44176C55.2912 8.2571 55.1435 8.09943 54.9702 7.96875C54.7997 7.83807 54.6037 7.74006 54.3821 7.67472C54.1605 7.60653 53.919 7.57244 53.6577 7.57244C53.1889 7.57244 52.7713 7.69034 52.4048 7.92614C52.0384 8.16193 51.75 8.50852 51.5398 8.96591C51.3324 9.42045 51.2287 9.97443 51.2287 10.6278C51.2287 11.2869 51.3324 11.8452 51.5398 12.3026C51.7472 12.7599 52.0355 13.108 52.4048 13.3466C52.7741 13.5824 53.2031 13.7003 53.6918 13.7003C54.1349 13.7003 54.5185 13.6151 54.8423 13.4446C55.169 13.2741 55.4205 13.0327 55.5966 12.7202C55.7727 12.4048 55.8608 12.0355 55.8608 11.6122L56.2188 11.6676H53.8494V10.4318H57.3906V11.4801C57.3906 12.2273 57.2315 12.8736 56.9134 13.419C56.5952 13.9645 56.1577 14.3849 55.6009 14.6804C55.044 14.973 54.4048 15.1193 53.6832 15.1193C52.8793 15.1193 52.1733 14.9389 51.5653 14.5781C50.9602 14.2145 50.4872 13.6989 50.1463 13.0312C49.8082 12.3608 49.6392 11.5653 49.6392 10.6449C49.6392 9.94034 49.7386 9.31108 49.9375 8.7571C50.1392 8.20312 50.4205 7.73295 50.7812 7.34659C51.142 6.95739 51.5653 6.66193 52.0511 6.46023C52.5369 6.25568 53.0653 6.15341 53.6364 6.15341C54.1193 6.15341 54.5696 6.22443 54.9872 6.36648C55.4048 6.50568 55.7756 6.70455 56.0994 6.96307C56.4261 7.22159 56.6946 7.52841 56.9048 7.88352C57.1151 8.23864 57.2528 8.63068 57.3182 9.05966H55.7074ZM61.7489 15.1278C61.0927 15.1278 60.5259 14.9915 60.0487 14.7188C59.5742 14.4432 59.2092 14.054 58.9535 13.5511C58.6978 13.0455 58.57 12.4503 58.57 11.7656C58.57 11.0923 58.6978 10.5014 58.9535 9.9929C59.212 9.48153 59.5728 9.08381 60.0359 8.79972C60.4989 8.51278 61.043 8.36932 61.668 8.36932C62.0714 8.36932 62.4521 8.43466 62.81 8.56534C63.1708 8.69318 63.489 8.89205 63.7646 9.16193C64.043 9.43182 64.2617 9.77557 64.4208 10.1932C64.5799 10.608 64.6594 11.1023 64.6594 11.6761V12.1491H59.2944V11.1094H63.1808C63.1779 10.8139 63.114 10.5511 62.989 10.321C62.864 10.0881 62.6893 9.90483 62.4648 9.77131C62.2433 9.63778 61.9847 9.57102 61.6893 9.57102C61.3739 9.57102 61.0969 9.64773 60.8583 9.80114C60.6197 9.9517 60.4336 10.1506 60.3001 10.3977C60.1694 10.642 60.1026 10.9105 60.0998 11.2031V12.1108C60.0998 12.4915 60.1694 12.8182 60.3086 13.0909C60.4478 13.3608 60.6424 13.5682 60.8924 13.7131C61.1424 13.8551 61.435 13.9261 61.7702 13.9261C61.9947 13.9261 62.1978 13.8949 62.3796 13.8324C62.5614 13.767 62.7191 13.6719 62.8526 13.5469C62.9862 13.4219 63.087 13.267 63.1552 13.0824L64.5955 13.2443C64.5046 13.625 64.3313 13.9574 64.0756 14.2415C63.8228 14.5227 63.4989 14.7415 63.104 14.8977C62.7092 15.0511 62.2575 15.1278 61.7489 15.1278ZM69.233 8.45455V9.64773H65.4702V8.45455H69.233ZM66.3991 6.88636H67.9418V13.0312C67.9418 13.2386 67.973 13.3977 68.0355 13.5085C68.1009 13.6165 68.1861 13.6903 68.2912 13.7301C68.3963 13.7699 68.5128 13.7898 68.6406 13.7898C68.7372 13.7898 68.8253 13.7827 68.9048 13.7685C68.9872 13.7543 69.0497 13.7415 69.0923 13.7301L69.3523 14.9361C69.2699 14.9645 69.152 14.9957 68.9986 15.0298C68.848 15.0639 68.6634 15.0838 68.4446 15.0895C68.0582 15.1009 67.7102 15.0426 67.4006 14.9148C67.0909 14.7841 66.8452 14.5824 66.6634 14.3097C66.4844 14.0369 66.3963 13.696 66.3991 13.2869V6.88636ZM78.6729 10.1847L77.2667 10.3381C77.2269 10.196 77.1573 10.0625 77.0579 9.9375C76.9613 9.8125 76.8306 9.71165 76.6658 9.63494C76.5011 9.55824 76.2994 9.51989 76.0607 9.51989C75.7397 9.51989 75.4698 9.58949 75.2511 9.72869C75.0352 9.8679 74.9286 10.0483 74.9315 10.2699C74.9286 10.4602 74.9982 10.6151 75.1403 10.7344C75.2852 10.8537 75.5238 10.9517 75.8562 11.0284L76.9727 11.267C77.592 11.4006 78.0522 11.6122 78.3533 11.902C78.6573 12.1918 78.8107 12.571 78.8136 13.0398C78.8107 13.4517 78.69 13.8153 78.4513 14.1307C78.2156 14.4432 77.8874 14.6875 77.467 14.8636C77.0465 15.0398 76.5636 15.1278 76.0181 15.1278C75.217 15.1278 74.5721 14.9602 74.0835 14.625C73.5948 14.2869 73.3036 13.8168 73.2099 13.2145L74.7141 13.0696C74.7823 13.3651 74.9272 13.5881 75.1488 13.7386C75.3704 13.8892 75.6587 13.9645 76.0138 13.9645C76.3803 13.9645 76.6744 13.8892 76.896 13.7386C77.1204 13.5881 77.2326 13.402 77.2326 13.1804C77.2326 12.9929 77.1602 12.8381 77.0153 12.7159C76.8732 12.5937 76.6516 12.5 76.3505 12.4347L75.234 12.2003C74.6062 12.0696 74.1417 11.8494 73.8406 11.5398C73.5394 11.2273 73.3903 10.8324 73.3931 10.3551C73.3903 9.9517 73.4996 9.60227 73.7212 9.30682C73.9457 9.00852 74.2567 8.77841 74.6545 8.61648C75.055 8.4517 75.5167 8.36932 76.0394 8.36932C76.8065 8.36932 77.4102 8.53267 77.8505 8.85938C78.2937 9.18608 78.5678 9.62784 78.6729 10.1847ZM83.354 8.45455V9.64773H79.5913V8.45455H83.354ZM80.5202 6.88636H82.0629V13.0312C82.0629 13.2386 82.0941 13.3977 82.1566 13.5085C82.2219 13.6165 82.3072 13.6903 82.4123 13.7301C82.5174 13.7699 82.6339 13.7898 82.7617 13.7898C82.8583 13.7898 82.9464 13.7827 83.0259 13.7685C83.1083 13.7543 83.1708 13.7415 83.2134 13.7301L83.4734 14.9361C83.391 14.9645 83.2731 14.9957 83.1197 15.0298C82.9691 15.0639 82.7844 15.0838 82.5657 15.0895C82.1793 15.1009 81.8313 15.0426 81.5217 14.9148C81.212 14.7841 80.9663 14.5824 80.7844 14.3097C80.6055 14.0369 80.5174 13.696 80.5202 13.2869V6.88636ZM86.5277 15.1321C86.1129 15.1321 85.7393 15.0582 85.407 14.9105C85.0774 14.7599 84.8161 14.5384 84.6229 14.2457C84.4325 13.9531 84.3374 13.5923 84.3374 13.1634C84.3374 12.794 84.4055 12.4886 84.5419 12.2472C84.6783 12.0057 84.8643 11.8125 85.1001 11.6676C85.3359 11.5227 85.6016 11.4134 85.897 11.3395C86.1953 11.2628 86.5036 11.2074 86.8217 11.1733C87.2053 11.1335 87.5163 11.098 87.755 11.0668C87.9936 11.0327 88.1669 10.9815 88.2749 10.9134C88.3857 10.8423 88.4411 10.733 88.4411 10.5852V10.5597C88.4411 10.2386 88.3459 9.99006 88.1555 9.81392C87.9652 9.63778 87.6911 9.54972 87.3331 9.54972C86.9553 9.54972 86.6555 9.6321 86.4339 9.79688C86.2152 9.96165 86.0675 10.1562 85.9908 10.3807L84.5504 10.1761C84.6641 9.77841 84.8516 9.44602 85.1129 9.17898C85.3743 8.90909 85.6939 8.70739 86.0717 8.57386C86.4496 8.4375 86.8672 8.36932 87.3246 8.36932C87.6399 8.36932 87.9538 8.40625 88.2663 8.48011C88.5788 8.55398 88.8643 8.67614 89.1229 8.84659C89.3814 9.0142 89.5888 9.2429 89.745 9.53267C89.9041 9.82244 89.9837 10.1847 89.9837 10.6193V15H88.5007V14.1009H88.4496C88.3558 14.2827 88.2237 14.4531 88.0533 14.6122C87.8857 14.7685 87.674 14.8949 87.4183 14.9915C87.1655 15.0852 86.8686 15.1321 86.5277 15.1321ZM86.9283 13.9986C87.2379 13.9986 87.5064 13.9375 87.7337 13.8153C87.9609 13.6903 88.1357 13.5256 88.2578 13.321C88.3828 13.1165 88.4453 12.8935 88.4453 12.652V11.8807C88.397 11.9205 88.3146 11.9574 88.1982 11.9915C88.0845 12.0256 87.9567 12.0554 87.8146 12.081C87.6726 12.1065 87.532 12.1293 87.3928 12.1491C87.2536 12.169 87.1328 12.1861 87.0305 12.2003C86.8004 12.2315 86.5945 12.2827 86.4126 12.3537C86.2308 12.4247 86.0874 12.5241 85.9822 12.652C85.8771 12.777 85.8246 12.9389 85.8246 13.1378C85.8246 13.4219 85.9283 13.6364 86.1357 13.7812C86.343 13.9261 86.6072 13.9986 86.9283 13.9986ZM91.5348 15V8.45455H93.0305V9.54545H93.0987C93.218 9.16761 93.4226 8.87642 93.7124 8.67188C94.005 8.46449 94.3388 8.3608 94.7138 8.3608C94.799 8.3608 94.8942 8.36506 94.9993 8.37358C95.1072 8.37926 95.1967 8.3892 95.2678 8.40341V9.82244C95.2024 9.79972 95.0987 9.77983 94.9567 9.76278C94.8175 9.7429 94.6825 9.73295 94.5518 9.73295C94.2706 9.73295 94.0178 9.79403 93.7933 9.91619C93.5717 10.0355 93.397 10.2017 93.2692 10.4148C93.1413 10.6278 93.0774 10.8736 93.0774 11.152V15H91.5348ZM99.9126 8.45455V9.64773H96.1499V8.45455H99.9126ZM97.0788 6.88636H98.6214V13.0312C98.6214 13.2386 98.6527 13.3977 98.7152 13.5085C98.7805 13.6165 98.8658 13.6903 98.9709 13.7301C99.076 13.7699 99.1925 13.7898 99.3203 13.7898C99.4169 13.7898 99.505 13.7827 99.5845 13.7685C99.6669 13.7543 99.7294 13.7415 99.772 13.7301L100.032 14.9361C99.9496 14.9645 99.8317 14.9957 99.6783 15.0298C99.5277 15.0639 99.343 15.0838 99.1243 15.0895C98.7379 15.1009 98.3899 15.0426 98.0803 14.9148C97.7706 14.7841 97.5249 14.5824 97.343 14.3097C97.1641 14.0369 97.076 13.696 97.0788 13.2869V6.88636ZM104.03 15.1278C103.374 15.1278 102.807 14.9915 102.33 14.7188C101.855 14.4432 101.49 14.054 101.235 13.5511C100.979 13.0455 100.851 12.4503 100.851 11.7656C100.851 11.0923 100.979 10.5014 101.235 9.9929C101.493 9.48153 101.854 9.08381 102.317 8.79972C102.78 8.51278 103.324 8.36932 103.949 8.36932C104.353 8.36932 104.733 8.43466 105.091 8.56534C105.452 8.69318 105.77 8.89205 106.046 9.16193C106.324 9.43182 106.543 9.77557 106.702 10.1932C106.861 10.608 106.941 11.1023 106.941 11.6761V12.1491H101.576V11.1094H105.462C105.459 10.8139 105.395 10.5511 105.27 10.321C105.145 10.0881 104.971 9.90483 104.746 9.77131C104.525 9.63778 104.266 9.57102 103.971 9.57102C103.655 9.57102 103.378 9.64773 103.14 9.80114C102.901 9.9517 102.715 10.1506 102.581 10.3977C102.451 10.642 102.384 10.9105 102.381 11.2031V12.1108C102.381 12.4915 102.451 12.8182 102.59 13.0909C102.729 13.3608 102.924 13.5682 103.174 13.7131C103.424 13.8551 103.716 13.9261 104.051 13.9261C104.276 13.9261 104.479 13.8949 104.661 13.8324C104.843 13.767 105 13.6719 105.134 13.5469C105.267 13.4219 105.368 13.267 105.436 13.0824L106.877 13.2443C106.786 13.625 106.613 13.9574 106.357 14.2415C106.104 14.5227 105.78 14.7415 105.385 14.8977C104.99 15.0511 104.539 15.1278 104.03 15.1278ZM110.675 15.1151C110.161 15.1151 109.7 14.983 109.294 14.7188C108.888 14.4545 108.567 14.071 108.331 13.5682C108.095 13.0653 107.977 12.4545 107.977 11.7358C107.977 11.0085 108.097 10.3949 108.335 9.89489C108.577 9.39205 108.902 9.01278 109.311 8.7571C109.72 8.49858 110.176 8.36932 110.679 8.36932C111.063 8.36932 111.378 8.43466 111.625 8.56534C111.872 8.69318 112.068 8.84801 112.213 9.02983C112.358 9.20881 112.47 9.37784 112.55 9.53693H112.614V6.27273H114.161V15H112.643V13.9688H112.55C112.47 14.1278 112.355 14.2969 112.205 14.4759C112.054 14.652 111.855 14.8026 111.608 14.9276C111.361 15.0526 111.05 15.1151 110.675 15.1151ZM111.105 13.8494C111.432 13.8494 111.71 13.7614 111.94 13.5852C112.17 13.4062 112.345 13.1577 112.464 12.8395C112.584 12.5213 112.643 12.1506 112.643 11.7273C112.643 11.304 112.584 10.9361 112.464 10.6236C112.348 10.3111 112.175 10.0682 111.945 9.89489C111.717 9.72159 111.438 9.63494 111.105 9.63494C110.761 9.63494 110.474 9.72443 110.244 9.90341C110.014 10.0824 109.841 10.3295 109.724 10.6449C109.608 10.9602 109.55 11.321 109.55 11.7273C109.55 12.1364 109.608 12.5014 109.724 12.8224C109.844 13.1406 110.018 13.392 110.249 13.5767C110.482 13.7585 110.767 13.8494 111.105 13.8494ZM120.132 15L118.282 8.45455H119.855L121.005 13.0568H121.065L122.241 8.45455H123.797L124.973 13.0312H125.037L126.17 8.45455H127.747L125.893 15H124.287L123.059 10.5767H122.97L121.743 15H120.132ZM128.824 15V8.45455H130.366V15H128.824ZM129.599 7.52557C129.355 7.52557 129.145 7.4446 128.969 7.28267C128.793 7.1179 128.705 6.92045 128.705 6.69034C128.705 6.45739 128.793 6.25994 128.969 6.09801C129.145 5.93324 129.355 5.85085 129.599 5.85085C129.847 5.85085 130.057 5.93324 130.23 6.09801C130.406 6.25994 130.494 6.45739 130.494 6.69034C130.494 6.92045 130.406 7.1179 130.23 7.28267C130.057 7.4446 129.847 7.52557 129.599 7.52557ZM135.221 8.45455V9.64773H131.458V8.45455H135.221ZM132.387 6.88636H133.93V13.0312C133.93 13.2386 133.961 13.3977 134.024 13.5085C134.089 13.6165 134.174 13.6903 134.279 13.7301C134.385 13.7699 134.501 13.7898 134.629 13.7898C134.725 13.7898 134.814 13.7827 134.893 13.7685C134.975 13.7543 135.038 13.7415 135.081 13.7301L135.341 14.9361C135.258 14.9645 135.14 14.9957 134.987 15.0298C134.836 15.0639 134.652 15.0838 134.433 15.0895C134.047 15.1009 133.699 15.0426 133.389 14.9148C133.079 14.7841 132.833 14.5824 132.652 14.3097C132.473 14.0369 132.385 13.696 132.387 13.2869V6.88636ZM138.195 11.1648V15H136.652V6.27273H138.161V9.56676H138.237C138.391 9.19744 138.628 8.90625 138.949 8.69318C139.273 8.47727 139.685 8.36932 140.185 8.36932C140.639 8.36932 141.036 8.46449 141.374 8.65483C141.712 8.84517 141.973 9.12358 142.158 9.49006C142.345 9.85653 142.439 10.304 142.439 10.8324V15H140.896V11.071C140.896 10.6307 140.783 10.2884 140.555 10.044C140.331 9.79687 140.016 9.6733 139.609 9.6733C139.337 9.6733 139.092 9.73295 138.876 9.85227C138.663 9.96875 138.496 10.1378 138.374 10.3594C138.254 10.581 138.195 10.8494 138.195 11.1648Z" fill="white"/>
<path d="M51.7045 24.3636L54.733 33.5227H54.8523L57.875 24.3636H60.1932L56.0909 36H53.4886L49.392 24.3636H51.7045ZM63.2401 36.1761C62.687 36.1761 62.1889 36.0777 61.7457 35.8807C61.3063 35.6799 60.9579 35.3845 60.7003 34.9943C60.4465 34.6042 60.3196 34.1231 60.3196 33.5511C60.3196 33.0587 60.4105 32.6515 60.5923 32.3295C60.7741 32.0076 61.0223 31.75 61.3366 31.5568C61.651 31.3636 62.0052 31.2178 62.3991 31.1193C62.7969 31.017 63.2079 30.9432 63.6321 30.8977C64.1435 30.8447 64.5582 30.7973 64.8764 30.7557C65.1946 30.7102 65.4257 30.642 65.5696 30.5511C65.7173 30.4564 65.7912 30.3106 65.7912 30.1136V30.0795C65.7912 29.6515 65.6643 29.3201 65.4105 29.0852C65.1567 28.8504 64.7912 28.733 64.3139 28.733C63.8101 28.733 63.4105 28.8428 63.1151 29.0625C62.8234 29.2822 62.6264 29.5417 62.5241 29.8409L60.6037 29.5682C60.7552 29.0379 61.0052 28.5947 61.3537 28.2386C61.7022 27.8788 62.1283 27.6098 62.6321 27.4318C63.1359 27.25 63.6927 27.1591 64.3026 27.1591C64.723 27.1591 65.1416 27.2083 65.5582 27.3068C65.9749 27.4053 66.3556 27.5682 66.7003 27.7955C67.045 28.0189 67.3215 28.3239 67.5298 28.7102C67.742 29.0966 67.848 29.5795 67.848 30.1591V36H65.8707V34.8011H65.8026C65.6776 35.0436 65.5014 35.2708 65.2741 35.483C65.0507 35.6913 64.7685 35.8598 64.4276 35.9886C64.0904 36.1136 63.6946 36.1761 63.2401 36.1761ZM63.7741 34.6648C64.187 34.6648 64.545 34.5833 64.848 34.4205C65.151 34.2538 65.384 34.0341 65.5469 33.7614C65.7135 33.4886 65.7969 33.1913 65.7969 32.8693V31.8409C65.7325 31.8939 65.6226 31.9432 65.4673 31.9886C65.3158 32.0341 65.1454 32.0739 64.956 32.108C64.7666 32.142 64.5791 32.1723 64.3935 32.1989C64.2079 32.2254 64.0469 32.2481 63.9105 32.267C63.6037 32.3087 63.3291 32.3769 63.0866 32.4716C62.8442 32.5663 62.6529 32.6989 62.5128 32.8693C62.3726 33.036 62.3026 33.2519 62.3026 33.517C62.3026 33.8958 62.4408 34.1818 62.7173 34.375C62.9938 34.5682 63.3461 34.6648 63.7741 34.6648ZM71.973 24.3636V36H69.9162V24.3636H71.973ZM79.6506 32.3295V27.2727H81.7074V36H79.7131V34.4489H79.6222C79.4252 34.9375 79.1013 35.3371 78.6506 35.6477C78.2036 35.9583 77.6525 36.1136 76.9972 36.1136C76.4252 36.1136 75.9195 35.9867 75.4801 35.733C75.0445 35.4754 74.7036 35.1023 74.4574 34.6136C74.2112 34.1212 74.0881 33.5265 74.0881 32.8295V27.2727H76.1449V32.5114C76.1449 33.0644 76.2964 33.5038 76.5994 33.8295C76.9025 34.1553 77.3002 34.3182 77.7926 34.3182C78.0956 34.3182 78.3892 34.2443 78.6733 34.0966C78.9574 33.9489 79.1903 33.7292 79.3722 33.4375C79.5578 33.142 79.6506 32.7727 79.6506 32.3295ZM83.8224 36V27.2727H85.8168V28.7273H85.9077C86.0668 28.2235 86.3395 27.8352 86.7259 27.5625C87.116 27.286 87.5611 27.1477 88.0611 27.1477C88.1747 27.1477 88.3016 27.1534 88.4418 27.1648C88.5857 27.1723 88.705 27.1856 88.7997 27.2045V29.0966C88.7126 29.0663 88.5743 29.0398 88.3849 29.017C88.1993 28.9905 88.0194 28.9773 87.8452 28.9773C87.4702 28.9773 87.133 29.0587 86.8338 29.2216C86.5384 29.3807 86.3054 29.6023 86.1349 29.8864C85.9645 30.1705 85.8793 30.4981 85.8793 30.8693V36H83.8224Z" fill="#FDFDFD"/>
<path d="M21.7158 4.17233e-07L15.4512 15.3128L20.2125 26.9497L17.54 30.6247C14.7171 23.7345 10.0225 12.2497 10.0225 12.2497L0 36.75H36.75L21.7158 4.17233e-07Z" fill="white"/>
</svg>
